<svg id="arrange" enable-background="new 0 0 300 300" height="512" viewBox="0 0 300 300" width="512" xmlns="http://www.w3.org/2000/svg"><g><path d="m176.232 238c-6.617 0-12 5.383-12 12s5.383 12 12 12 12-5.383 12-12-5.383-12-12-12zm0 16c-2.205 0-4-1.793-4-4s1.795-4 4-4 4 1.793 4 4-1.795 4-4 4z"/><path d="m226.421 247.445c-2.501-.005-4.533 2.02-4.538 4.521s2.02 4.533 4.521 4.538c2.502.005 4.533-2.02 4.538-4.521.005-2.502-2.019-4.533-4.521-4.538z"/><path d="m224.232 48.496c0-5.789-4.709-10.496-10.498-10.496h-171.004c-5.789 0-10.498 4.707-10.498 10.496v171.008c0 5.789 4.709 10.496 10.498 10.496h171.004c5.789 0 10.498-4.707 10.498-10.496zm-8 171.008c0 1.375-1.121 2.496-2.498 2.496h-171.004c-1.377 0-2.498-1.121-2.498-2.496v-171.008c0-1.375 1.121-2.496 2.498-2.496h171.004c1.377 0 2.498 1.121 2.498 2.496z"/><path d="m204.232 54h-152c-2.209 0-4 1.789-4 4v152c0 2.211 1.791 4 4 4h152c2.209 0 4-1.789 4-4v-152c0-2.211-1.791-4-4-4zm-4 76h-44v-68h44zm-96 8h44v68h-44zm0-8v-68h44v68zm-48 76v-144h40v144zm100 0v-68h44v68z"/><path d="m262.062 195.893 4.53-4.514c1.564-1.559 1.568-4.09.01-5.656s-4.092-1.562-5.658-.008l-4.527 4.511-4.51-4.527c-1.561-1.57-4.096-1.562-5.656-.008-1.566 1.559-1.57 4.09-.012 5.656l4.51 4.527-4.528 4.512c-1.564 1.559-1.568 4.09-.01 5.656.781.785 1.809 1.176 2.834 1.176 1.021 0 2.043-.391 2.824-1.168l4.525-4.509 4.512 4.529c.781.785 1.809 1.176 2.834 1.176 1.021 0 2.043-.387 2.822-1.168 1.566-1.559 1.57-4.09.012-5.656z"/></g></svg>