<svg id="_x33_0" enable-background="new 0 0 64 64" height="512" viewBox="0 0 64 64" width="512" xmlns="http://www.w3.org/2000/svg"><g><circle cx="20" cy="18" r="1"/><path d="m63.532 63-6.16-14h3.628c1.103 0 2-.897 2-2v-36c0-1.103-.897-2-2-2h-28c-1.103 0-2 .897-2 2v10.143c-.285-.085-.579-.143-.879-.143-1.721 0-3.121 1.4-3.121 3.121 0 .834.324 1.618.914 2.207l3.086 3.086v.655l-12 .857v-1.926h2c2.206 0 4-1.794 4-4v-2.586l2.414-2.414-.707-.707c-1.101-1.101-1.707-2.565-1.707-4.122v-.272c2.279-.465 4-2.484 4-4.899 0-2.757-2.243-5-5-5h-7.09c.056-.328.09-.661.09-1 0-1.654-1.346-3-3-3-2.636 0-5.087.794-7.138 2.147-.371-1.237-1.506-2.147-2.862-2.147-1.654 0-3 1.346-3 3 0 1.356.91 2.491 2.147 2.862-1.353 2.05-2.147 4.502-2.147 7.138 0 1.654 1.346 3 3 3 .337 0 .671-.035 1-.093v7.58c0 .792-.232 1.56-.672 2.219l-.438.656c-.582.872-.89 1.889-.89 2.94 0 .572.092 1.136.271 1.676.365 1.094 1.056 2.053 1.951 2.764-1.393 1.743-2.222 3.947-2.222 6.32v3.938c0 2.429 1.092 4.605 2.807 6.073l-1.988 11.927zm-55.893-10.75c.434.202.889.365 1.361.487v8.263h-2.819zm3.361-13.25h10v2.063c-1.519 1.028-2.686 2.388-3.358 3.937h-5.642c-.552 0-1-.449-1-1zm27.928 10h1.7l-5.28 12h-12.348v-4.994c1.502.631 3.199.994 5 .994 5.652 0 10.317-3.507 10.928-8zm13.072 1.78 4.471 10.22h-4.471zm-2 10.22h-2v-30h2zm-4 0h-4.471l4.471-10.22zm0-15.209-6.654 15.209h-1.814l8.468-19.245zm-9 2.209c0 3.86-4.037 7-9 7s-9-3.14-9-7 4.037-7 9-7 9 3.14 9 7zm-6-8.651c-.955-.222-1.959-.349-3-.349-1.801 0-3.498.363-5 .994v-1.174l8-1.6zm-10 15.588v6.063h-10v-8h7.86c.596.727 1.317 1.38 2.14 1.937zm37.654 6.063-6.654-15.209v-4.036l8.468 19.245zm2.346-14h-4.508l-4.492-10.21v-5.79c0-1.103-.897-2-2-2h-2c-1.103 0-2 .897-2 2v5.79l-4.492 10.21h-2.58c-.209-1.536-.893-2.954-1.928-4.158v-31.842h24zm-26-36v30.063c-.613-.415-1.286-.77-2-1.069v-28.994zm-5.672 13.914c-.212-.212-.328-.493-.328-.793 0-.618.503-1.121 1.121-1.121.295 0 .584.12.793.328l.086.086v3.172zm1.672 10.266-8 1.6v-.313c0-1.282-.226-2.563-.649-3.775l8.649-.618zm-10.74-2.339c.477 1.148.74 2.384.74 3.626v.533h-10v-.171c0-1.172-.26-2.315-.758-3.359.453-.173.926-.306 1.416-.397l.22.22c1.086 1.085 2.588 1.707 4.122 1.707 1.323 0 2.435-.866 2.833-2.057zm2.74-11.255v1.414h-2c-1.103 0-2-.897-2-2h-2c0 2.206 1.794 4 4 4h2c0 1.103-.897 2-2 2h-6v2h2v3c0 .551-.448 1-1 1-1.008 0-1.994-.409-2.707-1.121l-.293-.293v-13.586c0-1.654 1.346-3 3-3h7v.171c0 1.754.573 3.419 1.63 4.784zm-8-17.586c0 .981-.375 1.9-1.043 2.612-1.444-1.209-3.143-2.026-4.97-2.392 1.505-.774 3.207-1.22 5.013-1.22.552 0 1 .449 1 1zm-6.96 8.546c-1.32-1.636-2.04-3.657-2.04-5.789v-.283c.153-.163.311-.321.474-.474h.284c2.132 0 4.151.72 5.788 2.04zm-4.04-9.546c.552 0 1 .449 1 1s-.448 1-1 1-1-.449-1-1 .448-1 1-1zm-1 11c0-1.806.446-3.508 1.221-5.013.366 1.827 1.183 3.526 2.391 4.97-.705.659-1.645 1.043-2.612 1.043-.552 0-1-.449-1-1zm2 16.302c0-.654.191-1.287.555-1.832l.438-.656c.658-.988 1.007-2.139 1.007-3.328v-8.329c.405-.243.785-.528 1.121-.865l7.172-7.172c.341-.341.628-.719.87-1.121h7.837c1.654 0 3 1.346 3 3s-1.346 3-3 3h-8c-2.757 0-5 2.243-5 5v13.156c-1.646.354-3.13 1.109-4.364 2.145-.677-.481-1.203-1.162-1.467-1.956-.112-.335-.169-.686-.169-1.042zm0 14.698v-3.938c0-2.725 1.362-5.168 3.469-6.65.345.755.531 1.574.531 2.417v7.171c0 1.654 1.346 3 3 3h5.072c-.045.329-.072.662-.072 1 0 1.053.234 2.06.642 3h-6.642c-3.309 0-6-2.691-6-6z"/><path d="m25 45c-2.243 0-4 1.318-4 3s1.757 3 4 3 4-1.318 4-3-1.757-3-4-3zm0 4c-1.221 0-2-.592-2-1s.779-1 2-1 2 .592 2 1-.779 1-2 1z"/><circle cx="34" cy="46" r="1"/><circle cx="34" cy="50" r="1"/><circle cx="30" cy="44" r="1"/><circle cx="30" cy="52" r="1"/></g></svg>