<svg id="Layer_5" enable-background="new 0 0 64 64" height="512" viewBox="0 0 64 64" width="512" xmlns="http://www.w3.org/2000/svg"><g><path d="m54 47.559c0-4.275-3.043-7.986-7.235-8.825l-8.163-1.633-.85-1.275c4.126-.818 7.248-4.463 7.248-8.826v-2.101c2.279-.465 4-2.484 4-4.899s-1.721-4.434-4-4.899v-1.101c0-4.963-4.038-9-9-9h-3.101c-.465-2.279-2.485-4-4.899-4h-2.877c-2.299 0-4.293 1.558-4.851 3.787l-.097.388c-3.034.896-5.175 3.712-5.175 6.924v2.912c0 .938.198 1.877.556 2.747-.344.677-.556 1.432-.556 2.242 0 2.414 1.721 4.434 4 4.899v2.101c0 4.363 3.122 8.008 7.248 8.826l-.85 1.275-8.163 1.633c-4.192.838-7.235 4.549-7.235 8.825v9.441h2v6h40v-6h2zm-3.882-4.734-.242.194c-1.192.954-1.876 2.377-1.876 3.904v1.077c0 1.302-.839 2.402-2 2.816v-2.057c0-2.64.68-5.219 1.961-7.515.824.388 1.552.925 2.157 1.581zm-38.118 12.175v-7.441c0-1.101.28-2.143.745-3.083l.129.103c.715.573 1.126 1.428 1.126 2.344v1.077c0 2.414 1.721 4.434 4 4.899v2.101zm24-25h1.246l1.032 3.612c-.715.247-1.48.388-2.278.388zm-2 4h-4v-4h4zm-6 0c-.798 0-1.563-.141-2.278-.388l1.032-3.612h1.246zm7.465 2 1.333 2-4.798 7.197-4.798-7.197 1.333-2zm9.521 7h-7.986v2h7.412c-.271 1.228-.412 2.487-.412 3.759v.241h-11v-1.697l5.461-8.191 7.559 1.512c-.406.767-.749 1.562-1.034 2.376zm-13.986 4.303v1.697h-11v-.241c0-1.272-.142-2.531-.413-3.759h7.413v-2h-7.986c-.285-.814-.628-1.609-1.034-2.376l7.559-1.512zm-11 3.697h11v4h-11zm24 6v4h-24v-4zm-11-2v-4h11v4zm0-40h9c.551 0 1 .448 1 1v1 9.18l-7.492-1.499c-1.453-.289-2.508-1.577-2.508-3.059zm14 5c0 1.302-.839 2.402-2 2.816v-5.631c1.161.413 2 1.513 2 2.815zm-4.054-6.833c-.299-.1-.614-.167-.946-.167h-9v-2h4v-2h-4v-2h3c3.578 0 6.532 2.7 6.946 6.167zm-25.946 6.833c0-1.302.839-2.402 2-2.816v5.631c-1.161-.413-2-1.513-2-2.815zm2.026-4.901c-.712.141-1.363.44-1.932.85-.057-.311-.094-.624-.094-.938v-2.912c0-2.479 1.765-4.632 4.196-5.118l.621-.124.396-1.584c.334-1.338 1.531-2.273 2.91-2.273h2.877c1.654 0 3 1.346 3 3v7h-2c-1.103 0-2-.897-2-2s.897-2 2-2v-2c-1.91 0-3.511 1.345-3.906 3.138l-1.916.319c-2.323.387-4.018 2.318-4.152 4.642zm1.974 11.901v-11.611c0-1.473 1.054-2.717 2.507-2.959l1.662-.277c.496 1.645 2.026 2.847 3.831 2.847h2v6.622c0 2.433 1.731 4.544 4.116 5.021l7.774 1.555c-.318 1.834-1.35 3.423-2.801 4.472l-1.335-4.67h-13.508l-1.334 4.67c-1.76-1.273-2.912-3.337-2.912-5.67zm-4.961 14.244c1.281 2.295 1.961 4.874 1.961 7.515v2.057c-1.161-.414-2-1.514-2-2.816v-1.077c0-1.526-.684-2.95-1.876-3.905l-.242-.193c.606-.656 1.333-1.193 2.157-1.581zm-2.039 15.756h4v4h-4zm36 4h-4v-4h4zm2-6h-6v-2.101c2.279-.465 4-2.484 4-4.899v-1.077c0-.916.411-1.771 1.125-2.343l.13-.104c.465.94.745 1.982.745 3.083z"/><path d="m38 23c1.654 0 3-1.346 3-3s-1.346-3-3-3-3 1.346-3 3 1.346 3 3 3zm0-4c.551 0 1 .448 1 1s-.449 1-1 1-1-.448-1-1 .449-1 1-1z"/><path d="m26 23c1.654 0 3-1.346 3-3s-1.346-3-3-3-3 1.346-3 3 1.346 3 3 3zm0-4c.551 0 1 .448 1 1s-.449 1-1 1-1-.448-1-1 .449-1 1-1z"/></g></svg>