<svg id="Layer_1" enable-background="new 0 0 512 512" viewBox="0 0 512 512" xmlns="http://www.w3.org/2000/svg"><g><path d="m146.7 162.3c0-3.3-2.7-6-6-6s-6 2.7-6 6c0 2.5-2.1 4.6-4.6 4.6s-4.6-2.1-4.6-4.6c0-3.3-2.7-6-6-6s-6 2.7-6 6c0 9.1 7.4 16.6 16.6 16.6s16.6-7.4 16.6-16.6z"/><path d="m200.5 178.9c9.1 0 16.6-7.4 16.6-16.6 0-3.3-2.7-6-6-6s-6 2.7-6 6c0 2.5-2.1 4.6-4.6 4.6s-4.6-2.1-4.6-4.6c0-3.3-2.7-6-6-6s-6 2.7-6 6c0 9.2 7.5 16.6 16.6 16.6z"/><path d="m160.6 174.5h9.4c2.8 14.2 15.3 25 30.4 25 17.1 0 30.9-13.9 30.9-31s-13.9-31-30.9-31c-15 0-27.6 10.8-30.4 25h-9.4c-2.8-14.2-15.3-25-30.4-25-17.1 0-30.9 13.9-30.9 31s13.9 31 30.9 31c15.1 0 27.6-10.8 30.4-25zm39.8-25c10.4 0 18.9 8.5 18.9 19s-8.5 19-18.9 19-18.9-8.5-18.9-19 8.5-19 18.9-19zm-89.1 19c0-10.5 8.5-19 18.9-19s18.9 8.5 18.9 19-8.5 19-18.9 19-18.9-8.5-18.9-19z"/><path d="m120.5 129.1c2.9-2 6.2-3 9.7-3 6.6 0 12.8 3.9 15.7 9.9 1 2.1 3.2 3.4 5.4 3.4.9 0 1.8-.2 2.6-.6 3-1.4 4.2-5 2.8-8-4.9-10.1-15.3-16.6-26.5-16.6-5.9 0-11.6 1.8-16.5 5.1-2.7 1.9-3.5 5.6-1.6 8.3 2 2.6 5.7 3.3 8.4 1.5z"/><path d="m176.5 138.5c.8.3 1.5.5 2.3.5 2.3 0 4.6-1.4 5.5-3.7 2.7-6.5 9-10.7 16-10.7 2.8 0 5.5.6 7.9 1.9 2.9 1.5 6.6.4 8.1-2.6s.4-6.6-2.6-8.1c-4.1-2.1-8.8-3.2-13.4-3.2-11.9 0-22.5 7.1-27.1 18.1-1.2 3 .3 6.5 3.3 7.8z"/><path d="m175.1 244.5h-15.6c-3.3 0-6 2.7-6 6s2.7 6 6 6h15.6c3.3 0 6-2.7 6-6s-2.7-6-6-6z"/><path d="m230.2 307h-22v-38.9c13.7-10.1 23.5-24.9 27.2-41.9l9.5-44.5c10.4-.6 18.7-9.3 18.7-19.8 0-1.9-.3-3.8-.8-5.5v-44.1c0-26-14.9-50.2-38-62-14.9-16.5-36.2-26-58.5-26s-43.6 9.5-58.6 26.1c-22.9 11.7-37.7 35.8-37.7 61.8v43.4c-.7 2-1 4.1-1 6.3 0 10.6 8.3 19.2 18.7 19.8l9.6 45c3.6 17 13.4 31.8 27.1 41.9v38.4h-22c-53.7 0-97.4 43.7-97.4 97.5v91.5c0 3.3 2.7 6 6 6h310.6c3.3 0 6-2.7 6-6v-91.5c0-53.8-43.7-97.5-97.4-97.5zm20.7-194.8v31.1c-1.4-.5-2.9-1-4.5-1.2v-22.6c0-11.7-3.9-23.3-11.1-32.5-4.7-6-7.4-13.5-8-21.3 14.6 10.7 23.6 28.1 23.6 46.5zm-117.8-67.1c10-5.7 21.4-8.9 33.2-8.9 11.6 0 22.8 3 32.7 8.6v8.8c0 12.3-10 22.4-22.3 22.4h-21.3c-12.3 0-22.3-10-22.3-22.4zm-51.2 67.1c.1-18.4 9.1-35.8 23.7-46.5v1c0 7.1-2.4 13.8-6.8 18.9-8 9.4-12.4 21.5-12.4 34v22.6c-1.6.2-3.1.6-4.5 1.1zm27.1 111.9-10.6-49.7c-.6-2.8-3-4.7-5.9-4.7h-3.7c-4.3 0-7.8-3.5-7.8-7.9s3.5-7.9 7.8-7.9h3.7c3.3 0 6-2.7 6-6v-28.4c0-9.6 3.4-18.9 9.5-26.2 6.2-7.3 9.6-16.7 9.6-26.6v-9.4c1.1-1.2 2.3-2.3 3.5-3.4.2 18.8 15.5 34.1 34.3 34.1h21.3c18.9 0 34.3-15.4 34.3-34.4v-.2c1.4 1.3 2.8 2.6 4.1 4v5.6c0 11.4 3.8 22.5 10.6 31.4 5.5 7.2 8.6 16.1 8.6 25.2v28.4c0 3.3 2.7 6 6 6h3.4c4.3 0 7.8 3.5 7.8 7.9s-3.5 7.9-7.8 7.9h-3.7c-2.8 0-5.3 2-5.9 4.7l-10.5 49.2c-4 18.8-17 34.4-34.8 41.6l-19 7.9c-1.4.6-2.6 1-3.8 1-1.1 0-2.4-.3-3.7-.9l-19.3-7.8c-17.3-7.4-30.1-22.8-34-41.4zm87.1 51.2-1 51.6c-6.3 9.9-17 15.8-28.8 15.8s-22.4-5.9-28.8-15.8l-1-51.2 21 8.4c2.9 1.3 5.8 1.9 8.6 1.9 2.9 0 5.9-.7 8.9-2.1zm-55.6 214.7h-123.5v-85.5c0-47.2 38.3-85.5 85.4-85.5h13.6l-27.1 27.4c-1.1 1.1-1.8 2.7-1.7 4.3 0 1.6.7 3.1 1.9 4.3l33.3 31.6-12.5 14c-2.1 2.4-2 6 .2 8.3l18.4 18.3c7.7 7.7 12 17.9 12 28.8zm19.8 0h-7.9v-34.2c0-14.1-5.5-27.3-15.5-37.3l-14.3-14.3 12.6-14.1c2.2-2.4 2-6.1-.3-8.4l-33.1-31.4 23.5-23.8c2.3 13.5 8.6 25.9 18.3 35.8l16.7 17zm-8.1-135.9c-.8-.8-1.5-1.6-2.2-2.4 5.1 1.9 10.6 3 16.4 3 5.7 0 11.2-1 16.4-3-.7.8-1.5 1.6-2.2 2.4l-14.1 14.4zm26.2 135.9h-6.1v-110.5l16.7-17c9.8-9.9 16.1-22.4 18.3-35.9l23.6 23.8-33.1 31.4c-2.4 2.2-2.5 5.9-.3 8.4l12.6 14.1-16.2 16.2c-10 9.9-15.5 23.2-15.5 37.3zm137.3 0h-125.3v-32.3c0-10.9 4.2-21.1 11.9-28.8l20.2-20.2c2.3-2.3 2.4-5.9.2-8.3l-12.5-14 33.3-31.6c1.2-1.1 1.8-2.6 1.9-4.3 0-1.6-.6-3.2-1.7-4.3l-27-27.2h13.6c47.1 0 85.4 38.4 85.4 85.5z"/><path d="m227 436.5c0 3.3 2.7 6 6 6h61.2c3.3 0 6-2.7 6-6s-2.7-6-6-6h-61.2c-3.3 0-6 2.7-6 6z"/><path d="m494.9 123.2c-.3-3.3-3.3-5.7-6.6-5.4s-5.7 3.3-5.3 6.6c2.8 26.7-6.5 52.9-25.4 71.9-18.4 18.4-43.8 27.8-69.8 25.6-3.3-.3-6.2 2.2-6.5 5.5s2.2 6.2 5.5 6.5c2.8.2 5.5.3 8.3.3 26.5 0 52-10.5 71-29.5 21.4-21.5 31.9-51.2 28.8-81.5z"/><path d="m457.5 71c4.2 4.2 8 8.9 11.3 13.9 1.8 2.8 5.5 3.5 8.3 1.7s3.5-5.5 1.7-8.3c-3.7-5.6-8-10.9-12.8-15.7-19-19-44.2-29.5-71-29.5s-52 10.5-71 29.5c-39.1 39.2-39.1 103 0 142.3 5 5 10.4 9.4 16.2 13.2 1 .7 2.2 1 3.3 1 2 0 3.9-1 5-2.7 1.8-2.8 1-6.5-1.7-8.3-5.1-3.3-9.9-7.3-14.3-11.6-34.5-34.5-34.5-90.8 0-125.3 16.8-17 39-26.2 62.6-26.2s45.8 9.2 62.4 26z"/><path d="m318.6 245.8c34.9 0 83.7-36.5 117.8-70.7 3.3-3.3 6.6-6.7 9.8-10.1 1.9.5 4 .8 6.1.8 13.6 0 24.6-11.1 24.6-24.7 0-3-.5-6-1.6-8.8-.2-.5-.4-1-.6-1.5 33.2-45.5 41.2-80.7 22.5-99.5-14.7-14.8-37.4-10.1-53.9-3.7-3.1 1.2-4.6 4.7-3.4 7.8s4.7 4.6 7.8 3.4c19.1-7.5 32.8-7.2 41 1 13.3 13.4 5.1 43.6-21.9 81.4-4.1-3-9.2-4.8-14.5-4.8-13.6 0-24.6 11.1-24.6 24.7 0 7.1 3 13.4 7.7 17.9-2.4 2.6-4.9 5.1-7.4 7.6-40.7 40.8-83.6 67.2-109.3 67.2-7.3 0-13-2.1-17.2-6.3-10.6-10.7-5.8-29.7.1-43.8 1.3-3.1-.1-6.6-3.2-7.9s-6.6.1-7.9 3.2c-7.4 17.5-12.9 41.6 2.4 56.9 6.6 6.6 15.2 9.9 25.7 9.9zm133.7-117.4c5.2 0 9.9 3.3 11.8 8.1.6 1.4.8 3 .8 4.6 0 7-5.7 12.7-12.6 12.7s-12.6-5.7-12.6-12.7 5.6-12.7 12.6-12.7z"/><path d="m336.7 178c1.2 1.6 3 2.5 4.8 2.5 1.2 0 2.5-.4 3.5-1.2 2.7-2 3.3-5.7 1.3-8.4-1.2-1.6-2.3-3.2-3.3-4.9-1.7-2.8-5.4-3.7-8.2-2s-3.7 5.4-2 8.2c1.3 2 2.6 3.9 3.9 5.8z"/><path d="m332.7 97.8c-3.1-1.1-6.5.6-7.6 3.8-5.3 15.7-5.9 32.4-1.7 48.4.7 2.7 3.1 4.5 5.8 4.5.5 0 1-.1 1.5-.2 3.2-.8 5.1-4.1 4.3-7.3-3.6-13.7-3.1-28.1 1.4-41.5 1.1-3.2-.6-6.6-3.7-7.7z"/><path d="m290.9 53.5c5 1.7 8.9 5.6 10.6 10.6.8 2.5 3.1 4.1 5.7 4.1s4.9-1.7 5.7-4.1c1.7-5 5.6-9 10.6-10.6 2.4-.8 4.1-3.1 4.1-5.7s-1.7-4.9-4.1-5.7c-5-1.7-8.9-5.6-10.6-10.6-.8-2.5-3.1-4.1-5.7-4.1s-4.9 1.7-5.7 4.1c-1.7 5-5.6 9-10.6 10.6-2.4.8-4.1 3.1-4.1 5.7 0 2.5 1.7 4.8 4.1 5.7zm16.3-8.4c.8.9 1.7 1.8 2.6 2.6-.9.8-1.8 1.7-2.6 2.6-.8-.9-1.7-1.8-2.6-2.6.9-.8 1.8-1.6 2.6-2.6z"/><path d="m494.9 225.4c-5.3-1.8-9.5-6-11.2-11.3-.8-2.5-3.1-4.1-5.7-4.1s-4.9 1.7-5.7 4.1c-1.8 5.3-6 9.5-11.2 11.3-2.4.8-4.1 3.1-4.1 5.7s1.7 4.9 4.1 5.7c5.3 1.8 9.5 6 11.2 11.3.8 2.5 3.1 4.1 5.7 4.1s4.9-1.7 5.7-4.1c1.8-5.3 6-9.5 11.2-11.3 2.4-.8 4.1-3.1 4.1-5.7s-1.7-4.9-4.1-5.7zm-16.9 8.8c-1-1.1-2-2.2-3.2-3.2 1.1-1 2.2-2 3.2-3.2 1 1.1 2 2.2 3.2 3.2-1.2 1.1-2.3 2.1-3.2 3.2z"/><path d="m443.4 255.2c-5.4 0-9.8 4.4-9.8 9.8s4.4 9.8 9.8 9.8 9.8-4.4 9.8-9.8-4.4-9.8-9.8-9.8zm0 12c-1.2 0-2.2-1-2.2-2.2s1-2.2 2.2-2.2 2.2 1 2.2 2.2-1 2.2-2.2 2.2z"/><path d="m345.4 29.2c5.3 0 9.6-4.3 9.6-9.6s-4.3-9.6-9.6-9.6-9.6 4.3-9.6 9.6 4.3 9.6 9.6 9.6zm0-12c1.3 0 2.4 1.1 2.4 2.4s-1.1 2.4-2.4 2.4-2.4-1.1-2.4-2.4 1.1-2.4 2.4-2.4z"/><path d="m182.2 200h-28.2c-12.9 0-23.3 10.4-23.3 23.4v6c0 3.3 2.7 6 6 6h.9c5.8 0 11.3-1.8 15.9-5 2.8 2.6 6.2 4.3 10 5.1 1.3.2 2.5.3 3.8.3h1.4c1.3 0 2.6-.1 3.8-.3 3.8-.7 7.2-2.5 10-5.1 4.7 3.2 10.2 5 15.9 5h.9c3.3 0 6-2.7 6-6v-6c.3-12.9-10.2-23.4-23.1-23.4zm7 18.1-.8-1.3s0 0 0-.1c-1.4-2.3-4.4-3-6.7-1.7-3 1.7-5.8 3.6-8.3 5.9l-1 .9c-2.4 2.1-6.1 2.1-8.5 0l-1-.9c-2.5-2.3-5.3-4.2-8.3-5.9-2.4-1.2-5.3-.5-6.7 1.7v.1l-.8 1.3c-.9 1.5-2.7 2.6-4.1 3.5.8-5 5-9 10.1-9.5h30.3c5.1.5 9.3 4.5 10.1 9.5-1.6-.9-3.4-2-4.3-3.5z"/></g></svg>